<?xml version="1.0" encoding="UTF-8"?>
<svg id="Capa_2" data-name="Capa 2" xmlns="http://www.w3.org/2000/svg" viewBox="0 0 714.06 714.07">
  <defs>
    <style>
      .cls-1 {
        fill: #000;
        stroke-width: 0px;
      }
    </style>
  </defs>
  <g id="Layer_1" data-name="Layer 1">
    <g>
      <path class="cls-1" d="M609.49,104.58c67.43,67.43,104.57,157.09,104.57,252.45s-37.14,185.02-104.57,252.45-157.09,104.58-252.45,104.58-185.02-37.15-252.45-104.58C37.14,542.06,0,452.4,0,357.03S37.14,172.01,104.58,104.58C172.01,37.15,261.66,0,357.03,0s185.02,37.15,252.45,104.58ZM686.74,357.03c0-181.8-147.91-329.72-329.71-329.72S27.31,175.23,27.31,357.03s147.91,329.72,329.72,329.72,329.71-147.91,329.71-329.72Z"/>
      <path class="cls-1" d="M554.27,342.94c7.54,0,13.66,6.12,13.66,13.66,0,116.29-94.6,210.89-210.89,210.89s-210.89-94.6-210.89-210.89c0-7.54,6.12-13.66,13.66-13.66s13.66,6.12,13.66,13.66c0,101.24,82.36,183.58,183.58,183.58s183.58-82.35,183.58-183.58c0-7.54,6.11-13.66,13.66-13.66Z"/>
      <path class="cls-1" d="M456.87,160.23v175.83c0,7.54-6.12,13.66-13.66,13.66s-13.66-6.12-13.66-13.66v-175.83c0-7.55,6.12-13.66,13.66-13.66s13.66,6.11,13.66,13.66Z"/>
      <path class="cls-1" d="M284.51,160.23v175.83c0,7.54-6.12,13.66-13.66,13.66s-13.66-6.12-13.66-13.66v-175.83c0-7.55,6.11-13.66,13.66-13.66s13.66,6.11,13.66,13.66Z"/>
    </g>
</svg>